<svg width="454" height="225" viewBox="0 0 454 225" fill="none" xmlns="http://www.w3.org/2000/svg">
<g filter="url(#filter0_d)">
<path d="M141.154 170.4V188H111.954C106.487 188 102.154 187.933 98.9539 187.8C95.8872 187.533 92.0206 186.733 87.3539 185.4C82.6872 183.933 78.7539 181.8 75.5539 179C70.6206 174.467 67.4206 169.067 65.9539 162.8C64.4872 156.4 63.7539 148.933 63.7539 140.4V48H82.5539V140C82.5539 147.733 83.4206 153.8 85.1539 158.2C88.6206 166.333 95.8872 170.4 106.954 170.4H141.154ZM211.638 131.6V149.6C206.572 145.733 200.372 143.8 193.038 143.8C186.772 143.8 181.905 145.067 178.438 147.6C174.972 150 173.238 153.467 173.238 158C173.238 166.8 179.772 171.2 192.838 171.2H219.238V133C219.238 116.867 211.372 108.8 195.638 108.8H163.638V92H196.638C209.572 92 219.505 95.2 226.438 101.6C233.372 108 236.838 117.2 236.838 129.2V188H192.238C180.905 188 171.905 185.467 165.238 180.4C158.572 175.333 155.238 167.933 155.238 158.2C155.238 148.467 158.772 141.067 165.838 136C172.905 130.933 181.772 128.4 192.438 128.4C198.438 128.4 204.838 129.467 211.638 131.6ZM259.824 92H294.424C309.224 92 319.824 94.2 326.224 98.6C331.958 102.467 335.558 107.133 337.024 112.6C338.624 117.933 339.424 125 339.424 133.8V188H321.824V134C321.824 131.6 321.758 129.6 321.624 128C321.491 126.267 321.024 124.133 320.224 121.6C319.424 118.933 318.291 116.8 316.824 115.2C315.358 113.467 313.224 112 310.424 110.8C307.624 109.467 304.224 108.8 300.224 108.8H277.424V188H259.824V92ZM389.512 188H371.912V108.8H355.512L363.512 92H389.512V188ZM371.112 72C369.378 69.7333 368.512 67.2667 368.512 64.6C368.512 61.9333 369.378 59.5333 371.112 57.4C372.845 55.1333 375.512 54 379.112 54C382.712 54 385.378 55.1333 387.112 57.4C388.845 59.5333 389.712 61.9333 389.712 64.6C389.712 67.2667 388.845 69.7333 387.112 72C385.378 74.1333 382.712 75.2 379.112 75.2C375.512 75.2 372.845 74.1333 371.112 72Z" fill="white"/>
</g>
<defs>
<filter id="filter0_d" x="54.7539" y="42" width="345.958" height="160" filterUnits="userSpaceOnUse" color-interpolation-filters="sRGB">
<feFlood flood-opacity="0" result="BackgroundImageFix"/>
<feColorMatrix in="SourceAlpha" type="matrix" values="0 0 0 0 0 0 0 0 0 0 0 0 0 0 0 0 0 0 127 0"/>
<feOffset dx="1" dy="4"/>
<feGaussianBlur stdDeviation="5"/>
<feColorMatrix type="matrix" values="0 0 0 0 0 0 0 0 0 0 0 0 0 0 0 0 0 0 0.4 0"/>
<feBlend mode="normal" in2="BackgroundImageFix" result="effect1_dropShadow"/>
<feBlend mode="normal" in="SourceGraphic" in2="effect1_dropShadow" result="shape"/>
</filter>
</defs>
</svg>
