<svg width="250" height="100" viewBox="0 0 250 100" fill="none" xmlns="http://www.w3.org/2000/svg">
<g clip-path="url(#clip0_104_2)">
<g filter="url(#filter0_d_104_2)">
<path d="M77.7847 79.32V89H61.7247C58.718 89 56.3346 88.9633 54.5746 88.89C52.888 88.7433 50.7613 88.3033 48.1946 87.57C45.628 86.7633 43.4646 85.59 41.7046 84.05C38.9913 81.5567 37.2313 78.5867 36.4246 75.14C35.618 71.62 35.2146 67.5133 35.2146 62.82V12H45.5546V62.6C45.5546 66.8533 46.0313 70.19 46.9846 72.61C48.8913 77.0833 52.888 79.32 58.9746 79.32H77.7847ZM116.551 57.98V67.88C113.764 65.7533 110.354 64.69 106.321 64.69C102.874 64.69 100.198 65.3867 98.2911 66.78C96.3844 68.1 95.4311 70.0067 95.4311 72.5C95.4311 77.34 99.0244 79.76 106.211 79.76H120.731V58.75C120.731 49.8767 116.404 45.44 107.751 45.44H90.1511V36.2H108.301C115.414 36.2 120.878 37.96 124.691 41.48C128.504 45 130.411 50.06 130.411 56.66V89H105.881C99.6477 89 94.6977 87.6067 91.0311 84.82C87.3644 82.0333 85.5311 77.9633 85.5311 72.61C85.5311 67.2567 87.4744 63.1867 91.3611 60.4C95.2477 57.6133 100.124 56.22 105.991 56.22C109.291 56.22 112.811 56.8067 116.551 57.98ZM143.053 36.2H162.083C170.223 36.2 176.053 37.41 179.573 39.83C182.727 41.9567 184.707 44.5233 185.513 47.53C186.393 50.4633 186.833 54.35 186.833 59.19V89H177.153V59.3C177.153 57.98 177.117 56.88 177.043 56C176.97 55.0467 176.713 53.8733 176.273 52.48C175.833 51.0133 175.21 49.84 174.403 48.96C173.597 48.0067 172.423 47.2 170.883 46.54C169.343 45.8067 167.473 45.44 165.273 45.44H152.733V89H143.053V36.2ZM214.381 89H204.701V45.44H195.681L200.081 36.2H214.381V89ZM204.261 25.2C203.308 23.9533 202.831 22.5967 202.831 21.13C202.831 19.6633 203.308 18.3433 204.261 17.17C205.215 15.9233 206.681 15.3 208.661 15.3C210.641 15.3 212.108 15.9233 213.061 17.17C214.015 18.3433 214.491 19.6633 214.491 21.13C214.491 22.5967 214.015 23.9533 213.061 25.2C212.108 26.3733 210.641 26.96 208.661 26.96C206.681 26.96 205.215 26.3733 204.261 25.2Z" fill="white"/>
</g>
</g>
<defs>
<filter id="filter0_d_104_2" x="26.2146" y="6" width="199.277" height="97" filterUnits="userSpaceOnUse" color-interpolation-filters="sRGB">
<feFlood flood-opacity="0" result="BackgroundImageFix"/>
<feColorMatrix in="SourceAlpha" type="matrix" values="0 0 0 0 0 0 0 0 0 0 0 0 0 0 0 0 0 0 127 0" result="hardAlpha"/>
<feOffset dx="1" dy="4"/>
<feGaussianBlur stdDeviation="5"/>
<feColorMatrix type="matrix" values="0 0 0 0 0 0 0 0 0 0 0 0 0 0 0 0 0 0 0.4 0"/>
<feBlend mode="normal" in2="BackgroundImageFix" result="effect1_dropShadow_104_2"/>
<feBlend mode="normal" in="SourceGraphic" in2="effect1_dropShadow_104_2" result="shape"/>
</filter>
<clipPath id="clip0_104_2">
<rect width="250" height="100" fill="white"/>
</clipPath>
</defs>
</svg>
